<svg width="1024" height="1024" viewBox="0 0 1024 1024" fill="none" xmlns="http://www.w3.org/2000/svg">
<path d="M655.103 570.981L613.369 557.546L583.329 545.701L583.722 535.918L624.431 372.798L692.199 445.51L668.792 547.315L655.103 570.981Z" fill="white"/>
<path d="M655.103 570.981L613.369 557.546L583.329 545.701L583.722 535.918L624.431 372.798L692.199 445.51L668.792 547.315L655.103 570.981Z" fill="url(#paint0_linear_1_3)"/>
<path d="M603.869 508.312L632.479 381.52L624.174 372.228L593.138 496.682L603.869 508.312Z" fill="black" fill-opacity="0.2"/>
<path d="M307.114 437.96C337.155 461.779 491.412 642.725 508.037 656.142C524.663 669.56 535.277 674.235 557.088 676.227C579.843 678.226 592.941 675.59 617.186 661.144C635.363 646.77 643.954 636.822 653.447 612.208L674.594 521.372C664.982 547.362 654.169 558.549 637.231 541.987L462.633 347.96C455.233 340.309 450.747 339.196 442.175 334.54C434.491 331.82 430.004 330.697 421.509 329.79C412.339 329.325 407.005 329.463 397.124 330.49C388.976 331.333 383.132 333.289 373.074 336.186C373.074 336.186 362.022 340.138 353.753 343.865C345.485 347.593 340.616 350.748 333.14 355.216C324.034 360.434 319.265 363.893 310.949 370.364C301.134 378.056 295.809 382.921 286.55 392.341C276.947 403.063 272.045 409.46 264.508 421.831C258.906 430.325 256.727 435.39 253.949 444.772C261.439 425.786 284.933 420.374 307.114 437.96Z" fill="white"/>
<path d="M734.73 254.467L716.197 353.388L706.132 401.836L638.934 328.867L652.151 257.728C653.009 243.28 648.755 237.996 639.298 229.216C623.532 220.018 609.042 223.168 595.107 231.64C603.927 225.501 609.728 221.719 622.591 216.507C647.262 206.109 661.009 203.48 685.399 203.632C705.564 205.789 714.521 210.37 726.568 224.184C734.859 234.177 736.18 241.001 734.73 254.467Z" fill="white"/>
<path d="M634.734 339.337L628.519 365.123L689.452 430.282L695.097 404.753L634.734 339.337Z" fill="#64D2FF"/>
<g filter="url(#filter0_f_1_3)">
<ellipse cx="531.5" cy="841" rx="237.5" ry="5" fill="#64D2FF"/>
</g>
<defs>
<filter id="filter0_f_1_3" x="264.837" y="806.837" width="533.325" height="68.3254" filterUnits="userSpaceOnUse" color-interpolation-filters="sRGB">
<feFlood flood-opacity="0" result="BackgroundImageFix"/>
<feBlend mode="normal" in="SourceGraphic" in2="BackgroundImageFix" result="shape"/>
<feGaussianBlur stdDeviation="14.5814" result="effect1_foregroundBlur_1_3"/>
</filter>
<linearGradient id="paint0_linear_1_3" x1="612.854" y1="629.89" x2="680.096" y2="397.203" gradientUnits="userSpaceOnUse">
<stop offset="0.270833" stop-color="#64D2FF"/>
<stop offset="0.526042" stop-color="white"/>
</linearGradient>
</defs>
</svg>
